<svg id="visual" viewBox="0 0 900 600" width="900" height="600" xmlns="http://www.w3.org/2000/svg" xmlns:xlink="http://www.w3.org/1999/xlink" version="1.1"><rect x="0" y="0" width="900" height="600" fill="#121314"></rect><path d="M0 271L12.5 273C25 275 50 279 75 282.8C100 286.7 125 290.3 150 279.7C175 269 200 244 225 248.3C250 252.7 275 286.3 300 297.5C325 308.7 350 297.3 375 291.5C400 285.7 425 285.3 450 280.8C475 276.3 500 267.7 525 268.7C550 269.7 575 280.3 600 274.8C625 269.3 650 247.7 675 248.7C700 249.7 725 273.3 750 268.8C775 264.3 800 231.7 825 227.5C850 223.3 875 247.7 887.5 259.8L900 272L900 0L887.5 0C875 0 850 0 825 0C800 0 775 0 750 0C725 0 700 0 675 0C650 0 625 0 600 0C575 0 550 0 525 0C500 0 475 0 450 0C425 0 400 0 375 0C350 0 325 0 300 0C275 0 250 0 225 0C200 0 175 0 150 0C125 0 100 0 75 0C50 0 25 0 12.5 0L0 0Z" fill="#c73227"></path><path d="M0 171L12.5 175.8C25 180.7 50 190.3 75 208.5C100 226.7 125 253.3 150 265.5C175 277.7 200 275.3 225 272C250 268.7 275 264.3 300 262.7C325 261 350 262 375 252.3C400 242.7 425 222.3 450 223.7C475 225 500 248 525 254.3C550 260.7 575 250.3 600 243.7C625 237 650 234 675 240.5C700 247 725 263 750 267.5C775 272 800 265 825 264.3C850 263.7 875 269.3 887.5 272.2L900 275L900 0L887.5 0C875 0 850 0 825 0C800 0 775 0 750 0C725 0 700 0 675 0C650 0 625 0 600 0C575 0 550 0 525 0C500 0 475 0 450 0C425 0 400 0 375 0C350 0 325 0 300 0C275 0 250 0 225 0C200 0 175 0 150 0C125 0 100 0 75 0C50 0 25 0 12.5 0L0 0Z" fill="#bc282e"></path><path d="M0 189L12.5 183C25 177 50 165 75 163.3C100 161.7 125 170.3 150 171.5C175 172.7 200 166.3 225 169.2C250 172 275 184 300 189.5C325 195 350 194 375 194.5C400 195 425 197 450 201.5C475 206 500 213 525 213.8C550 214.7 575 209.3 600 199.3C625 189.3 650 174.7 675 173.2C700 171.7 725 183.3 750 192.8C775 202.3 800 209.7 825 209.7C850 209.7 875 202.3 887.5 198.7L900 195L900 0L887.5 0C875 0 850 0 825 0C800 0 775 0 750 0C725 0 700 0 675 0C650 0 625 0 600 0C575 0 550 0 525 0C500 0 475 0 450 0C425 0 400 0 375 0C350 0 325 0 300 0C275 0 250 0 225 0C200 0 175 0 150 0C125 0 100 0 75 0C50 0 25 0 12.5 0L0 0Z" fill="#b11f33"></path><path d="M0 187L12.5 179.2C25 171.3 50 155.7 75 152.8C100 150 125 160 150 156.2C175 152.3 200 134.7 225 128.7C250 122.7 275 128.3 300 128.2C325 128 350 122 375 131.5C400 141 425 166 450 177.2C475 188.3 500 185.7 525 175.2C550 164.7 575 146.3 600 138C625 129.7 650 131.3 675 133.3C700 135.3 725 137.7 750 135.2C775 132.7 800 125.3 825 131.2C850 137 875 156 887.5 165.5L900 175L900 0L887.5 0C875 0 850 0 825 0C800 0 775 0 750 0C725 0 700 0 675 0C650 0 625 0 600 0C575 0 550 0 525 0C500 0 475 0 450 0C425 0 400 0 375 0C350 0 325 0 300 0C275 0 250 0 225 0C200 0 175 0 150 0C125 0 100 0 75 0C50 0 25 0 12.5 0L0 0Z" fill="#a41737"></path><path d="M0 114L12.5 110.2C25 106.3 50 98.7 75 102.3C100 106 125 121 150 122.2C175 123.3 200 110.7 225 111.3C250 112 275 126 300 124.2C325 122.3 350 104.7 375 102.7C400 100.7 425 114.3 450 123C475 131.7 500 135.3 525 133.5C550 131.7 575 124.3 600 125C625 125.7 650 134.3 675 134.2C700 134 725 125 750 122.7C775 120.3 800 124.7 825 129.2C850 133.7 875 138.3 887.5 140.7L900 143L900 0L887.5 0C875 0 850 0 825 0C800 0 775 0 750 0C725 0 700 0 675 0C650 0 625 0 600 0C575 0 550 0 525 0C500 0 475 0 450 0C425 0 400 0 375 0C350 0 325 0 300 0C275 0 250 0 225 0C200 0 175 0 150 0C125 0 100 0 75 0C50 0 25 0 12.5 0L0 0Z" fill="#971239"></path><path d="M0 86L12.5 89.5C25 93 50 100 75 99.5C100 99 125 91 150 86.5C175 82 200 81 225 80C250 79 275 78 300 81.5C325 85 350 93 375 90.8C400 88.7 425 76.3 450 69.7C475 63 500 62 525 67.2C550 72.3 575 83.7 600 88.5C625 93.3 650 91.7 675 90.3C700 89 725 88 750 86.8C775 85.7 800 84.3 825 88.8C850 93.3 875 103.7 887.5 108.8L900 114L900 0L887.5 0C875 0 850 0 825 0C800 0 775 0 750 0C725 0 700 0 675 0C650 0 625 0 600 0C575 0 550 0 525 0C500 0 475 0 450 0C425 0 400 0 375 0C350 0 325 0 300 0C275 0 250 0 225 0C200 0 175 0 150 0C125 0 100 0 75 0C50 0 25 0 12.5 0L0 0Z" fill="#890e3b"></path><path d="M0 54L12.5 54.7C25 55.3 50 56.7 75 59C100 61.3 125 64.7 150 61.2C175 57.7 200 47.3 225 41.5C250 35.7 275 34.3 300 33.3C325 32.3 350 31.7 375 32.7C400 33.7 425 36.3 450 41.3C475 46.3 500 53.7 525 54.2C550 54.7 575 48.3 600 47.8C625 47.3 650 52.7 675 52.5C700 52.3 725 46.7 750 47.8C775 49 800 57 825 58.3C850 59.7 875 54.3 887.5 51.7L900 49L900 0L887.5 0C875 0 850 0 825 0C800 0 775 0 750 0C725 0 700 0 675 0C650 0 625 0 600 0C575 0 550 0 525 0C500 0 475 0 450 0C425 0 400 0 375 0C350 0 325 0 300 0C275 0 250 0 225 0C200 0 175 0 150 0C125 0 100 0 75 0C50 0 25 0 12.5 0L0 0Z" fill="#7b0d3b"></path></svg>