<svg id="visual" viewBox="0 0 900 600" width="900" height="600" xmlns="http://www.w3.org/2000/svg" xmlns:xlink="http://www.w3.org/1999/xlink" version="1.1"><rect x="0" y="0" width="900" height="600" fill="#121314"></rect><path d="M0 159L11.5 185C23 211 46 263 69 294.5C92 326 115 337 138.2 311.5C161.3 286 184.7 224 207.8 221.3C231 218.7 254 275.3 277 313.3C300 351.3 323 370.7 346 347.2C369 323.7 392 257.3 415.2 256.5C438.3 255.7 461.7 320.3 484.8 335.5C508 350.7 531 316.3 554 316.2C577 316 600 350 623 358.5C646 367 669 350 692.2 350.8C715.3 351.7 738.7 370.3 761.8 368.3C785 366.3 808 343.7 831 309.3C854 275 877 229 888.5 206L900 183L900 0L888.5 0C877 0 854 0 831 0C808 0 785 0 761.8 0C738.7 0 715.3 0 692.2 0C669 0 646 0 623 0C600 0 577 0 554 0C531 0 508 0 484.8 0C461.7 0 438.3 0 415.2 0C392 0 369 0 346 0C323 0 300 0 277 0C254 0 231 0 207.8 0C184.7 0 161.3 0 138.2 0C115 0 92 0 69 0C46 0 23 0 11.5 0L0 0Z" fill="#7b0d3b"></path><path d="M0 311L11.5 304.2C23 297.3 46 283.7 69 262C92 240.3 115 210.7 138.2 222.7C161.3 234.7 184.7 288.3 207.8 290.7C231 293 254 244 277 246.7C300 249.3 323 303.7 346 297.7C369 291.7 392 225.3 415.2 202.2C438.3 179 461.7 199 484.8 225.3C508 251.7 531 284.3 554 272.5C577 260.7 600 204.3 623 190C646 175.7 669 203.3 692.2 211C715.3 218.7 738.7 206.3 761.8 202C785 197.7 808 201.3 831 213.3C854 225.3 877 245.7 888.5 255.8L900 266L900 0L888.5 0C877 0 854 0 831 0C808 0 785 0 761.8 0C738.7 0 715.3 0 692.2 0C669 0 646 0 623 0C600 0 577 0 554 0C531 0 508 0 484.8 0C461.7 0 438.3 0 415.2 0C392 0 369 0 346 0C323 0 300 0 277 0C254 0 231 0 207.8 0C184.7 0 161.3 0 138.2 0C115 0 92 0 69 0C46 0 23 0 11.5 0L0 0Z" fill="#92103a"></path><path d="M0 225L11.5 220.5C23 216 46 207 69 194.5C92 182 115 166 138.2 175.7C161.3 185.3 184.7 220.7 207.8 224.8C231 229 254 202 277 181.2C300 160.3 323 145.7 346 167.3C369 189 392 247 415.2 274C438.3 301 461.7 297 484.8 288.3C508 279.7 531 266.3 554 268.3C577 270.3 600 287.7 623 270.3C646 253 669 201 692.2 179C715.3 157 738.7 165 761.8 162.5C785 160 808 147 831 151.8C854 156.7 877 179.3 888.5 190.7L900 202L900 0L888.5 0C877 0 854 0 831 0C808 0 785 0 761.8 0C738.7 0 715.3 0 692.2 0C669 0 646 0 623 0C600 0 577 0 554 0C531 0 508 0 484.8 0C461.7 0 438.3 0 415.2 0C392 0 369 0 346 0C323 0 300 0 277 0C254 0 231 0 207.8 0C184.7 0 161.3 0 138.2 0C115 0 92 0 69 0C46 0 23 0 11.5 0L0 0Z" fill="#a81936"></path><path d="M0 220L11.5 211C23 202 46 184 69 194C92 204 115 242 138.2 239.7C161.3 237.3 184.7 194.7 207.8 169.5C231 144.3 254 136.7 277 152.3C300 168 323 207 346 221.7C369 236.3 392 226.7 415.2 212.5C438.3 198.3 461.7 179.7 484.8 184.8C508 190 531 219 554 236.2C577 253.3 600 258.7 623 261.3C646 264 669 264 692.2 244.8C715.3 225.7 738.7 187.3 761.8 170.2C785 153 808 157 831 163.7C854 170.3 877 179.7 888.5 184.3L900 189L900 0L888.5 0C877 0 854 0 831 0C808 0 785 0 761.8 0C738.7 0 715.3 0 692.2 0C669 0 646 0 623 0C600 0 577 0 554 0C531 0 508 0 484.8 0C461.7 0 438.3 0 415.2 0C392 0 369 0 346 0C323 0 300 0 277 0C254 0 231 0 207.8 0C184.7 0 161.3 0 138.2 0C115 0 92 0 69 0C46 0 23 0 11.5 0L0 0Z" fill="#bc282e"></path><path d="M0 148L11.5 165.2C23 182.3 46 216.7 69 230.2C92 243.7 115 236.3 138.2 215.7C161.3 195 184.7 161 207.8 163.7C231 166.3 254 205.7 277 210.2C300 214.7 323 184.3 346 163C369 141.7 392 129.3 415.2 126.5C438.3 123.7 461.7 130.3 484.8 127C508 123.7 531 110.3 554 111.2C577 112 600 127 623 152.8C646 178.7 669 215.3 692.2 207.5C715.3 199.7 738.7 147.3 761.8 122.3C785 97.3 808 99.7 831 110.3C854 121 877 140 888.5 149.5L900 159L900 0L888.5 0C877 0 854 0 831 0C808 0 785 0 761.8 0C738.7 0 715.3 0 692.2 0C669 0 646 0 623 0C600 0 577 0 554 0C531 0 508 0 484.8 0C461.7 0 438.3 0 415.2 0C392 0 369 0 346 0C323 0 300 0 277 0C254 0 231 0 207.8 0C184.7 0 161.3 0 138.2 0C115 0 92 0 69 0C46 0 23 0 11.5 0L0 0Z" fill="#c73227"></path><path d="M0 92L11.5 110.5C23 129 46 166 69 177.2C92 188.3 115 173.7 138.2 154.8C161.3 136 184.7 113 207.8 118.7C231 124.3 254 158.7 277 157.2C300 155.7 323 118.3 346 103C369 87.7 392 94.3 415.2 115.3C438.3 136.3 461.7 171.7 484.8 187.7C508 203.7 531 200.3 554 198.8C577 197.3 600 197.7 623 187.5C646 177.3 669 156.7 692.2 156.8C715.3 157 738.7 178 761.8 171.8C785 165.7 808 132.3 831 128.5C854 124.7 877 150.3 888.5 163.2L900 176L900 0L888.5 0C877 0 854 0 831 0C808 0 785 0 761.8 0C738.7 0 715.3 0 692.2 0C669 0 646 0 623 0C600 0 577 0 554 0C531 0 508 0 484.8 0C461.7 0 438.3 0 415.2 0C392 0 369 0 346 0C323 0 300 0 277 0C254 0 231 0 207.8 0C184.7 0 161.3 0 138.2 0C115 0 92 0 69 0C46 0 23 0 11.5 0L0 0Z" fill="#c73227"></path><path d="M0 91L11.5 94.3C23 97.7 46 104.3 69 114.5C92 124.7 115 138.3 138.2 139.7C161.3 141 184.7 130 207.8 127.7C231 125.3 254 131.7 277 128.7C300 125.7 323 113.3 346 104.5C369 95.7 392 90.3 415.2 92C438.3 93.7 461.7 102.3 484.8 108.5C508 114.7 531 118.3 554 117.7C577 117 600 112 623 113C646 114 669 121 692.2 119.8C715.3 118.7 738.7 109.3 761.8 103.7C785 98 808 96 831 103.8C854 111.7 877 129.3 888.5 138.2L900 147L900 0L888.5 0C877 0 854 0 831 0C808 0 785 0 761.8 0C738.7 0 715.3 0 692.2 0C669 0 646 0 623 0C600 0 577 0 554 0C531 0 508 0 484.8 0C461.7 0 438.3 0 415.2 0C392 0 369 0 346 0C323 0 300 0 277 0C254 0 231 0 207.8 0C184.7 0 161.3 0 138.2 0C115 0 92 0 69 0C46 0 23 0 11.5 0L0 0Z" fill="#bc282e"></path><path d="M0 87L11.5 86.5C23 86 46 85 69 87.5C92 90 115 96 138.2 98.8C161.3 101.7 184.7 101.3 207.8 100.5C231 99.7 254 98.3 277 94C300 89.7 323 82.3 346 78.8C369 75.3 392 75.7 415.2 80.5C438.3 85.3 461.7 94.7 484.8 98.7C508 102.7 531 101.3 554 95.2C577 89 600 78 623 76.5C646 75 669 83 692.2 82.5C715.3 82 738.7 73 761.8 75.2C785 77.3 808 90.7 831 91.3C854 92 877 80 888.5 74L900 68L900 0L888.5 0C877 0 854 0 831 0C808 0 785 0 761.8 0C738.7 0 715.3 0 692.2 0C669 0 646 0 623 0C600 0 577 0 554 0C531 0 508 0 484.8 0C461.7 0 438.3 0 415.2 0C392 0 369 0 346 0C323 0 300 0 277 0C254 0 231 0 207.8 0C184.7 0 161.3 0 138.2 0C115 0 92 0 69 0C46 0 23 0 11.5 0L0 0Z" fill="#a81936"></path><path d="M0 51L11.5 48.3C23 45.7 46 40.3 69 48.2C92 56 115 77 138.2 77.8C161.3 78.7 184.7 59.3 207.8 58C231 56.7 254 73.3 277 81.8C300 90.3 323 90.7 346 89.2C369 87.7 392 84.3 415.2 82.5C438.3 80.7 461.7 80.3 484.8 80.7C508 81 531 82 554 74.8C577 67.7 600 52.3 623 51C646 49.7 669 62.3 692.2 63.5C715.3 64.7 738.7 54.3 761.8 49C785 43.7 808 43.3 831 42.2C854 41 877 39 888.5 38L900 37L900 0L888.5 0C877 0 854 0 831 0C808 0 785 0 761.8 0C738.7 0 715.3 0 692.2 0C669 0 646 0 623 0C600 0 577 0 554 0C531 0 508 0 484.8 0C461.7 0 438.3 0 415.2 0C392 0 369 0 346 0C323 0 300 0 277 0C254 0 231 0 207.8 0C184.7 0 161.3 0 138.2 0C115 0 92 0 69 0C46 0 23 0 11.5 0L0 0Z" fill="#92103a"></path><path d="M0 55L11.5 54.3C23 53.7 46 52.3 69 54.5C92 56.7 115 62.3 138.2 62.7C161.3 63 184.7 58 207.8 51.5C231 45 254 37 277 36.7C300 36.3 323 43.7 346 47.8C369 52 392 53 415.2 50.7C438.3 48.3 461.7 42.7 484.8 45C508 47.3 531 57.7 554 57.7C577 57.7 600 47.3 623 45.8C646 44.3 669 51.7 692.2 49.2C715.3 46.7 738.7 34.3 761.8 29.2C785 24 808 26 831 27.3C854 28.7 877 29.3 888.5 29.7L900 30L900 0L888.5 0C877 0 854 0 831 0C808 0 785 0 761.8 0C738.7 0 715.3 0 692.2 0C669 0 646 0 623 0C600 0 577 0 554 0C531 0 508 0 484.8 0C461.7 0 438.3 0 415.2 0C392 0 369 0 346 0C323 0 300 0 277 0C254 0 231 0 207.8 0C184.7 0 161.3 0 138.2 0C115 0 92 0 69 0C46 0 23 0 11.5 0L0 0Z" fill="#7b0d3b"></path></svg>