<svg id="visual" viewBox="0 0 900 600" width="900" height="600" xmlns="http://www.w3.org/2000/svg" xmlns:xlink="http://www.w3.org/1999/xlink" version="1.1"><rect x="0" y="0" width="900" height="600" fill="#002233"></rect><path d="M0 406L10.7 384.7C21.3 363.3 42.7 320.7 64.2 314.5C85.7 308.3 107.3 338.7 128.8 343.7C150.3 348.7 171.7 328.3 193 332.7C214.3 337 235.7 366 257 369.7C278.3 373.3 299.7 351.7 321.2 341.8C342.7 332 364.3 334 385.8 323.7C407.3 313.3 428.7 290.7 450 281.8C471.3 273 492.7 278 514.2 278.3C535.7 278.7 557.3 274.3 578.8 270.5C600.3 266.7 621.7 263.3 643 273.3C664.3 283.3 685.7 306.7 707 321.3C728.3 336 749.7 342 771.2 353.8C792.7 365.7 814.3 383.3 835.8 381.7C857.3 380 878.7 359 889.3 348.5L900 338" fill="none" stroke-linecap="round" stroke-linejoin="miter" stroke="#0066FF" stroke-width="20"></path></svg>