<svg id="visual" viewBox="0 0 960 540" width="960" height="540" xmlns="http://www.w3.org/2000/svg" xmlns:xlink="http://www.w3.org/1999/xlink" version="1.1"><rect x="0" y="0" width="960" height="540" fill="#080707"></rect><defs><linearGradient id="grad1_0" x1="43.8%" y1="0%" x2="100%" y2="100%"><stop offset="14.444444444444446%" stop-color="#080707" stop-opacity="1"></stop><stop offset="85.55555555555554%" stop-color="#080707" stop-opacity="1"></stop></linearGradient></defs><defs><linearGradient id="grad2_0" x1="0%" y1="0%" x2="56.3%" y2="100%"><stop offset="14.444444444444446%" stop-color="#080707" stop-opacity="1"></stop><stop offset="85.55555555555554%" stop-color="#080707" stop-opacity="1"></stop></linearGradient></defs><g transform="translate(960, 0)"><path d="M0 432C-52.7 419 -105.3 405.9 -160.7 388C-216.1 370.2 -274.3 347.5 -305.5 305.5C-336.7 263.5 -340.9 202.2 -357.5 148.1C-374.1 94 -403.1 47 -432 0L0 0Z" fill="#271eb4"></path></g><g transform="translate(0, 540)"><path d="M0 -432C52 -419.1 104.1 -406.2 161.1 -389C218.1 -371.7 280.1 -350.1 305.5 -305.5C330.8 -260.9 319.5 -193.3 334.4 -138.5C349.4 -83.8 390.7 -41.9 432 0L0 0Z" fill="#271eb4"></path></g></svg>